#tb 0: 1/25
#media_type 0: video
#codec_id 0: rawvideo
#dimensions 0: 352x288
#sar 0: 0/1
0,          0,          0,        1,   304128, 0x42900c13
0,          1,          1,        1,   304128, 0xfb0439bc
0,          2,          2,        1,   304128, 0x967b9f0d
0,          3,          3,        1,   304128, 0xc2c92489
0,          4,          4,        1,   304128, 0x024499b1
0,          5,          5,        1,   304128, 0x66144785
0,          6,          6,        1,   304128, 0x0e505bcd
0,          7,          7,        1,   304128, 0xc8b26ed2
0,          8,          8,        1,   304128, 0x14b5717b
0,          9,          9,        1,   304128, 0x2ba3144a
0,         10,         10,        1,   304128, 0x1185992b
0,         11,         11,        1,   304128, 0xd55b289a
0,         12,         12,        1,   304128, 0x59f2f3be
0,         13,         13,        1,   304128, 0xfe4d6adf
0,         14,         14,        1,   304128, 0x630806cc
0,         15,         15,        1,   304128, 0x2deb2f19
0,         16,         16,        1,   304128, 0xfbffa923
0,         17,         17,        1,   304128, 0xb7770d46
0,         18,         18,        1,   304128, 0xda09bd0e
0,         19,         19,        1,   304128, 0x17a422d2
0,         20,         20,        1,   304128, 0xbb6172f5
0,         21,         21,        1,   304128, 0xcf639456
0,         22,         22,        1,   304128, 0xdb0ae1ac
0,         23,         23,        1,   304128, 0x850d6a68
0,         24,         24,        1,   304128, 0xdc8409fb
0,         25,         25,        1,   304128, 0x26216c51
0,         26,         26,        1,   304128, 0x1d0004de
0,         27,         27,        1,   304128, 0xed019a70
0,         28,         28,        1,   304128, 0xb1abd985
0,         29,         29,        1,   304128, 0xec1c14b2
0,         30,         30,        1,   304128, 0x046db068
0,         31,         31,        1,   304128, 0xa4fb1029
0,         32,         32,        1,   304128, 0x49e05e61
0,         33,         33,        1,   304128, 0x7668d6d1
0,         34,         34,        1,   304128, 0x6dd0ce9d
0,         35,         35,        1,   304128, 0x87983f5e
0,         36,         36,        1,   304128, 0xb98278cf
0,         37,         37,        1,   304128, 0x55186244
0,         38,         38,        1,   304128, 0x3135e7ea
0,         39,         39,        1,   304128, 0xdbf59a2c
0,         40,         40,        1,   304128, 0x944cdc92
0,         41,         41,        1,   304128, 0x5849dfe8
0,         42,         42,        1,   304128, 0xaf9075ba
0,         43,         43,        1,   304128, 0xb4f01118
0,         44,         44,        1,   304128, 0x4dfb711f
0,         45,         45,        1,   304128, 0xb558e732
0,         46,         46,        1,   304128, 0xb23a171e
0,         47,         47,        1,   304128, 0xb5c68065
0,         48,         48,        1,   304128, 0xcf1b122e
0,         49,         49,        1,   304128, 0x1e2d38e5
